<?xml version="1.0" encoding="utf-8"?>
<!-- Generator: Adobe Illustrator 20.0.0, SVG Export Plug-In . SVG Version: 6.00 Build 0)  -->
<!DOCTYPE svg PUBLIC "-//W3C//DTD SVG 1.1//EN" "http://www.w3.org/Graphics/SVG/1.1/DTD/svg11.dtd">
<svg version="1.1" id="Layer_1" xmlns="http://www.w3.org/2000/svg" xmlns:xlink="http://www.w3.org/1999/xlink" x="0px" y="0px"
	 width="80px" height="80px" viewBox="0 0 80 80" enable-background="new 0 0 80 80" xml:space="preserve">
<path fill="#326DE6" stroke="#FFFFFF" stroke-miterlimit="10" d="M24.4,77.9c-1.2,0-2.3-0.5-3.1-1.5L1.8,52.2C1,51.3,0.7,50,1,48.8
	l7-30.2c0.3-1.2,1.1-2.2,2.2-2.7L38.3,2.4c1.1-0.5,2.3-0.5,3.4,0l28.2,13.5c1.1,0.5,1.9,1.5,2.2,2.7l7,30.2c0.3,1.2,0,2.4-0.8,3.4
	L58.7,76.5c-0.8,0.9-1.9,1.5-3.1,1.5L24.4,77.9z"/>
<path fill="#FFFFFF" d="M69.4,46.8c-0.3-0.4-0.7-0.7-1.2-0.8c-0.1,0-0.3,0-0.4-0.1c0,0,0,0-0.1,0c-0.4-0.1-0.7-0.1-1.1-0.1
	c-0.2,0-0.4,0-0.5,0l0,0c-1.1-0.1-2.1-0.2-3-0.5c-0.4-0.1-0.5-0.4-0.6-0.6c0,0,0,0,0,0l0-0.1l-1-0.3c0.3-2.5,0.2-5.1-0.4-7.7
	c-0.6-2.6-1.7-5-3.1-7.1l0.8-0.7l-0.1-0.1c0,0,0,0,0,0c0-0.3,0-0.5,0.3-0.8c0.7-0.6,1.5-1.1,2.5-1.7l0,0c0.2-0.1,0.3-0.2,0.5-0.3
	c0.3-0.2,0.6-0.3,0.9-0.6c0,0,0,0,0.1,0c0.1-0.1,0.2-0.1,0.3-0.2c0.8-0.7,1-1.8,0.4-2.6c-0.6-0.8-1.8-0.8-2.6-0.2
	c-0.1,0.1-0.2,0.2-0.3,0.3c0,0,0,0-0.1,0c-0.3,0.3-0.5,0.5-0.7,0.8c-0.1,0.1-0.2,0.3-0.4,0.4l0,0c-0.8,0.8-1.5,1.5-2.2,2
	c-0.3,0.2-0.6,0.2-0.9,0.1c0,0,0,0,0,0l-0.1-0.1l-0.9,0.6c-3.6-3.7-8.4-6.1-13.6-6.6L41.9,19l0,0h-0.1c0,0,0-0.1,0-0.1
	c-0.2-0.2-0.4-0.4-0.5-0.8c-0.1-0.9,0-1.9,0.2-3.1l0,0c0-0.2,0.2-0.4,0.2-0.5c0.1-0.3,0.3-0.7,0.3-1.1c0,0,0,0,0-0.1
	c0-0.1-0.1-0.3-0.1-0.4c0-0.5-0.3-1-0.6-1.3C41,11.2,40.5,11,40,11h0c-1,0-1.9,0.8-1.9,1.9c0,0.1-0.1,0.2-0.1,0.4c0,0,0,0,0,0.1
	c0,0.4,0.2,0.7,0.3,1.1c0,0.2,0.1,0.4,0.2,0.5l0,0c0.1,1.1,0.3,2.1,0.2,3c-0.1,0.4-0.2,0.7-0.4,0.9c0,0,0,0.1,0,0.1h-0.1L38,19.9
	c-1,0.1-1.9,0.2-2.9,0.4c-4.2,1-7.9,3.1-10.8,6.1l-0.8-0.6l-0.1,0.1c0,0,0,0,0,0c-0.3,0-0.5,0.1-0.9-0.1c-0.7-0.5-1.4-1.2-2.2-2l0,0
	c-0.1-0.1-0.2-0.3-0.4-0.4c-0.2-0.3-0.4-0.5-0.7-0.8c0,0,0,0-0.1,0c-0.1-0.1-0.2-0.2-0.3-0.3c-0.4-0.3-0.9-0.5-1.4-0.5
	c-0.5,0-0.9,0.2-1.2,0.6c-0.6,0.8-0.4,1.9,0.4,2.6c0.1,0.1,0.2,0.2,0.3,0.2c0,0,0,0,0.1,0c0.3,0.2,0.6,0.4,0.9,0.6
	c0.2,0.1,0.3,0.2,0.5,0.3l0,0c1,0.6,1.8,1.1,2.5,1.7c0.3,0.3,0.3,0.6,0.3,0.8c0,0,0,0,0,0l-0.1,0.1l0.8,0.7
	c-0.1,0.1-0.2,0.2-0.2,0.4c-2.7,4.4-3.8,9.4-3.1,14.5l-0.9,0.3l-0.1,0l0,0.1c0,0,0,0,0,0c-0.1,0.2-0.3,0.5-0.6,0.6
	c-0.9,0.3-1.8,0.4-3,0.5l0,0c-0.2,0-0.4,0-0.5,0c-0.4,0-0.7,0-1.1,0.1c0,0,0,0-0.1,0c-0.1,0-0.3,0-0.4,0.1c-0.5,0.1-0.9,0.4-1.2,0.8
	c-0.3,0.4-0.4,0.9-0.3,1.3c0.2,0.8,0.9,1.3,1.8,1.3c0.2,0,0.3,0,0.5-0.1c0.1,0,0.3-0.1,0.4-0.1c0,0,0,0,0.1,0c0.4-0.1,0.7-0.2,1-0.4
	c0.2-0.1,0.3-0.1,0.5-0.2l0,0c1.1-0.4,2-0.7,2.9-0.9c0.4,0,0.6,0.1,0.8,0.3c0,0,0,0,0,0l0,0.1l1-0.2c1.7,5.1,5.1,9.2,9.5,11.8
	l-0.4,1l0.1,0.1c0,0,0,0,0,0c0.1,0.2,0.2,0.5,0.1,0.9c-0.3,0.8-0.9,1.7-1.5,2.6l0,0c-0.1,0.2-0.2,0.3-0.3,0.4
	c-0.2,0.3-0.4,0.6-0.6,0.9c0,0,0,0,0,0.1c-0.1,0.1-0.2,0.2-0.2,0.4c-0.5,1-0.1,2.1,0.7,2.5c0.2,0.1,0.5,0.2,0.7,0.2
	c0.2,0,0.4,0,0.7-0.1c0.5-0.2,0.8-0.5,1.1-1c0.1-0.1,0.1-0.3,0.1-0.4c0,0,0,0,0-0.1c0.2-0.4,0.2-0.7,0.3-1c0-0.2,0.1-0.3,0.2-0.5
	l0,0c0.4-1.1,0.7-2,1.1-2.8c0.2-0.3,0.5-0.4,0.7-0.5c0,0,0,0,0,0l0.1,0.1l0.5-1c2.4,0.9,5,1.4,7.6,1.4c1.6,0,3.2-0.2,4.8-0.5
	c0.9-0.2,1.9-0.5,2.7-0.8l0.5,0.9l0.1-0.1c0,0,0,0,0,0c0.3,0.1,0.5,0.2,0.7,0.5c0.5,0.8,0.8,1.7,1.1,2.8l0,0
	c0.1,0.2,0.1,0.4,0.2,0.5c0.1,0.3,0.2,0.7,0.3,1c0,0,0,0,0,0.1c0,0.1,0.1,0.3,0.1,0.4c0.3,0.7,1,1.1,1.7,1.1c0.2,0,0.5-0.1,0.7-0.2
	c0.9-0.4,1.2-1.5,0.7-2.5c-0.1-0.1-0.1-0.2-0.2-0.4c0,0,0,0,0-0.1c-0.2-0.3-0.4-0.6-0.6-0.9c-0.1-0.1-0.2-0.3-0.3-0.4l0,0
	c-0.6-1-1.2-1.8-1.5-2.6c-0.1-0.4,0-0.6,0.1-0.9c0,0,0,0,0,0l0.1-0.1L51.2,60c2.9-1.7,5.4-4.1,7.2-7.1c1-1.5,1.7-3.2,2.3-4.9l1,0.2
	l0-0.1c0,0,0,0,0,0c0.2-0.1,0.4-0.3,0.8-0.3c0.9,0.1,1.8,0.5,2.9,0.9l0,0c0.2,0.1,0.3,0.1,0.5,0.2c0.3,0.1,0.6,0.3,1,0.4
	c0,0,0,0,0.1,0c0.1,0.1,0.3,0.1,0.4,0.1c0.2,0,0.3,0.1,0.5,0.1c0.9,0,1.6-0.5,1.8-1.3C69.8,47.7,69.7,47.2,69.4,46.8z M42.4,43.3
	L40,44.5l-2.4-1.2L37,40.9l1.7-1.9h2.7l1.7,1.9L42.4,43.3z M62.3,47.9C62.2,47.9,62.2,47.9,62.3,47.9C62.2,47.9,62.2,47.9,62.3,47.9
	z M57.2,37.5c0.4,1.9,0.5,3.8,0.4,5.6l-9.1-2.6c-0.5-0.3-0.8-0.9-0.6-1.6c0-0.1,0.1-0.3,0.2-0.4l7.1-6.3
	C56,33.8,56.8,35.6,57.2,37.5z M52.3,28.8l-7.7,5.4c-0.6,0.2-1.2,0.1-1.6-0.5c-0.1-0.1-0.1-0.2-0.2-0.4l-0.5-9.5
	C46,24.4,49.6,26.1,52.3,28.8z M36,24.2L36,24.2c0.6-0.1,1.2-0.2,1.8-0.3l-0.5,9.5c-0.2,0.6-0.7,1-1.4,1c-0.1,0-0.3,0-0.4-0.1
	l-7.8-5.5C30,26.5,32.8,24.9,36,24.2z M24.9,32.2l7,6.3c0.3,0.5,0.4,1.2-0.1,1.7c-0.1,0.1-0.2,0.2-0.3,0.3l-9.1,2.6
	C22,39.3,22.9,35.5,24.9,32.2z M23.4,47.5l9.4-1.6c0.6,0.1,1.1,0.5,1.2,1.1c0,0.2,0,0.3,0,0.5l-3.6,8.7
	C27.3,54.2,24.8,51.2,23.4,47.5z M44,58.6c-3.3,0.7-6.6,0.5-9.5-0.5l4.6-8.3c0.4-0.4,1.1-0.5,1.6-0.2c0.1,0.1,0.3,0.2,0.4,0.3
	l4.6,8.3C45.1,58.4,44.5,58.5,44,58.6z M55,50.8c-1.4,2.2-3.2,4-5.4,5.4l-3.7-8.9c0-0.6,0.3-1.2,0.8-1.4c0.1-0.1,0.3-0.1,0.4-0.1
	l9.4,1.6C56.2,48.6,55.7,49.8,55,50.8z"/>
</svg>
